<svg height="434pt" viewBox="0 -32 434.0009 434" width="434pt" xmlns="http://www.w3.org/2000/svg"><path d="m372.402344 221.511719h-146.203125v-39.28125c0-3.867188-3.132813-7-7-7-3.863281 0-7 3.132812-7 7v39.28125h-146.199219c-14.902344.015625-26.984375 12.09375-27 27v32.847656c0 3.867187 3.132812 7 7 7s7-3.132813 7-7v-32.847656c.007812-7.175781 5.824219-12.992188 13-13h146.199219v45.847656c0 3.867187 3.136719 7 7 7 3.867187 0 7-3.132813 7-7v-45.847656h146.203125c7.175781.007812 12.988281 5.824219 13 13v32.847656c0 3.867187 3.132812 7 7 7 3.863281 0 7-3.132813 7-7v-32.847656c-.019532-14.90625-12.097656-26.984375-27-27zm0 0" fill="#2561a1"/><g fill="#6fe3ff"><path d="m226.902344 334.90625 23.941406-23.945312c2.734375-2.734376 2.734375-7.167969 0-9.902344-2.734375-2.730469-7.167969-2.730469-9.898438 0l-23.945312 23.945312-23.9375-23.941406c-2.734375-2.734375-7.167969-2.734375-9.902344 0s-2.734375 7.164062 0 9.898438l23.941406 23.945312-23.941406 23.945312c-2.734375 2.734376-2.734375 7.167969 0 9.898438 2.734375 2.734375 7.167969 2.734375 9.898438 0l23.941406-23.945312 23.941406 23.945312c2.734375 2.734375 7.164063 2.734375 9.898438 0s2.734375-7.164062 0-9.898438zm0 0"/><path d="m82.269531 300.679688-47.203125 43.246093-22.921875-24.851562c-2.621093-2.84375-7.046875-3.019531-9.890625-.398438-2.839844 2.621094-3.019531 7.046875-.398437 9.890625l27.648437 29.980469c2.613282 2.835937 7.03125 3.019531 9.875.414063l52.351563-47.957032c2.847656-2.613281 3.042969-7.042968.429687-9.890625-2.609375-2.851562-7.039062-3.046875-9.890625-.433593zm0 0"/><path d="m432.164062 301.113281c-2.613281-2.851562-7.042968-3.046875-9.894531-.433593l-47.203125 43.246093-22.921875-24.851562c-2.621093-2.84375-7.046875-3.019531-9.890625-.398438-2.839844 2.621094-3.019531 7.046875-.398437 9.890625l27.648437 29.980469c2.613282 2.835937 7.03125 3.019531 9.875.414063l52.351563-47.957032c2.847656-2.613281 3.042969-7.039062.433593-9.890625zm0 0"/></g><path d="m338 30v118.289062c.011719 9.84375-4.820312 19.058594-12.917969 24.652344 0 0 0 .007813-.011719 0-5.003906 3.492188-10.964843 5.363282-17.070312 5.347656h-180c-7.957031.007813-15.589844-3.152343-21.21875-8.777343-5.628906-5.628907-8.785156-13.261719-8.78125-21.222657v-118.289062c0-1.644531.136719-3.289062.410156-4.910156l.800782.140625 103.308593 87.480469c8.960938 7.578124 22.089844 7.570312 31.039063-.019532l103.210937-87.53125.8125-.140625c.28125 1.644531.421875 3.3125.417969 4.980469zm0 0" fill="#e48e66"/><path d="m337.582031 25.019531-.8125.140625-103.210937 87.53125c-8.949219 7.589844-22.078125 7.597656-31.039063.019532l-103.308593-87.480469-.800782-.140625c2.394532-14.476563 14.914063-25.0976565 29.589844-25.089844h180c14.644531.00390625 27.148438 10.578125 29.582031 25.019531zm0 0" fill="#f8ec7d"/><path d="m334.351562 162.640625c-2.242187 4.113281-5.417968 7.640625-9.269531 10.300781 0 0 0 .007813-.011719 0-.382812-.257812-.738281-.550781-1.058593-.882812l-57.78125-58.789063c-2.710938-2.753906-2.675781-7.1875.078125-9.898437 2.757812-2.710938 7.191406-2.675782 9.902344.078125l57.78125 58.792969c.125.125.246093.257812.359374.398437zm0 0" fill="#af593c"/><path d="m169.441406 113.25-57.460937 58.769531c-.328125.34375-.691407.644531-1.089844.902344-3.851563-2.664063-7.023437-6.195313-9.261719-10.3125.101563-.128906.214844-.253906.332032-.367187l57.460937-58.773438c2.699219-2.765625 7.132813-2.820312 9.898437-.117188 2.765626 2.699219 2.820313 7.132813.121094 9.898438zm0 0" fill="#af593c"/></svg>